# xmcd
#
# Track frame offsets: 
#        150
#        16154
#        34579
#        53504
#        69973
#        89792
#        108060
#        133150
#        153070
#        168588
#        186416
#        209793
#
# Disc length: 3000 seconds
#
# Revision: 4
# Processed by: cddbd v1.5.2PL0 Copyright (c) Steve Scherf et al.
# Submitted via: ExactAudioCopy v1.0b4
#
DISCID=9e0bb60c
DTITLE=La Bionda - I Grandi Successi Originali [CD1)
DYEAR=2002
DGENRE=Disco
TTITLE0=One For You, One For Me
TTITLE1=High Energy
TTITLE2=Moonlight Palais
TTITLE3=Baby Make Love
TTITLE4=Hey Woman
TTITLE5=Black And White
TTITLE6=Deserts Of Mars
TTITLE7=Bandido
TTITLE8=1-2-3-4 Gimme Some More
TTITLE9=Action
TTITLE10=Listen To My Heart
TTITLE11=Welcome Home
EXTD=YEAR: 2002
EXTT0=
EXTT1=
EXTT2=
EXTT3=
EXTT4=
EXTT5=
EXTT6=
EXTT7=
EXTT8=
EXTT9=
EXTT10=
EXTT11=
PLAYORDER=
